<svg width="36" height="46" viewBox="0 0 36 46" fill="none" xmlns="http://www.w3.org/2000/svg">
<path fill-rule="evenodd" clip-rule="evenodd" d="M17.7917 33.0417L35.5833 45.75V5.08333C35.5833 3.73515 35.0478 2.44218 34.0945 1.48887C33.1411 0.535564 31.8482 0 30.5 0H5.08333C3.73515 0 2.44218 0.535564 1.48887 1.48887C0.535564 2.44218 0 3.73515 0 5.08333V45.75L17.7917 33.0417ZM21.0898 25V24.2837L19.5745 24.1184C19.2806 24.0816 19.1061 24.0082 19.051 23.898C18.9959 23.7878 18.9684 23.4112 18.9684 22.7684V15.8806C18.9684 15.7153 18.9592 15.5592 18.9408 15.4122C18.9408 15.2469 18.9316 15.0908 18.9133 14.9439C19.5561 13.8602 20.2357 13.1347 20.952 12.7673C21.6867 12.3816 22.3388 12.1888 22.9082 12.1888C23.698 12.1888 24.2949 12.4735 24.699 13.0429C25.1214 13.5939 25.3327 14.549 25.3327 15.9082V22.7684C25.3327 23.4112 25.3051 23.7878 25.25 23.898C25.1949 24.0082 25.0204 24.0816 24.7265 24.1184L23.2112 24.2837V25H29.7133V24.2837L28.198 24.1184C27.9041 24.0816 27.7296 24.0082 27.6745 23.898C27.6194 23.7878 27.5918 23.4112 27.5918 22.7684V15.8806C27.5918 14.3561 27.2245 13.1806 26.4898 12.3541C25.7735 11.5092 24.7633 11.0867 23.4592 11.0867C22.6143 11.0867 21.7694 11.3071 20.9245 11.748C20.098 12.1704 19.3449 12.8592 18.6653 13.8143C18.0959 11.9959 16.8194 11.0867 14.8357 11.0867C14.0276 11.0867 13.2102 11.2888 12.3837 11.6929C11.5755 12.0969 10.85 12.7306 10.2071 13.5939V11.3622H5.96429V12.1061L7.47959 12.2439C7.77347 12.2806 7.94796 12.3541 8.00306 12.4643C8.05816 12.5745 8.08571 12.951 8.08571 13.5939V22.7684C8.08571 23.4112 8.05816 23.7878 8.00306 23.898C7.94796 24.0082 7.77347 24.0816 7.47959 24.1184L5.96429 24.2837V25H12.4663V24.2837L10.951 24.1184C10.6571 24.0816 10.4827 24.0082 10.4276 23.898C10.3724 23.7878 10.3449 23.4112 10.3449 22.7684V14.8612C10.9878 13.8143 11.6582 13.1071 12.3561 12.7398C13.0724 12.3724 13.7153 12.1888 14.2847 12.1888C15.0745 12.1888 15.6714 12.4735 16.0755 13.0429C16.498 13.5939 16.7092 14.549 16.7092 15.9082V22.7684C16.7092 23.4112 16.6816 23.7878 16.6265 23.898C16.5714 24.0082 16.3969 24.0816 16.1031 24.1184L14.5878 24.2837V25H21.0898Z" fill="#2D323A"/>
</svg>
